<?xml version="1.0" encoding="utf-8"?>
<!-- Generator: Adobe Illustrator 19.2.1, SVG Export Plug-In . SVG Version: 6.00 Build 0)  -->
<svg version="1.1" id="layer" xmlns="http://www.w3.org/2000/svg" xmlns:xlink="http://www.w3.org/1999/xlink" x="0px" y="0px"
	 viewBox="0 0 652 652" style="enable-background:new 0 0 652 652;" xml:space="preserve">
<style type="text/css">
	.st0{fill:#5C6670;}
	.st1{fill:#00ADBB;}
	.st2{fill:#A4A9AD;}
</style>
<g>
	<g>
		<g>
			<g>
				<path class="st0" d="M211.4,306.9c0.3,0.5,0.9,0.9,1.5,0.9h7.5c0.6,0,1.2-0.3,1.5-0.9l3.8-6.5c0.3-0.5,0.3-1.2,0-1.7l-3.8-6.5
					c-0.3-0.5-0.9-0.9-1.5-0.9h-7.5c-0.6,0-1.2,0.3-1.5,0.9l-3.8,6.5c-0.3,0.5-0.3,1.2,0,1.7L211.4,306.9z"/>
			</g>
			<g>
				<path class="st0" d="M237.3,313.1c-2-2.3-5.4-2.6-7.7-0.6l-13,11.1l-13-11.1c-2.3-2-5.7-1.7-7.7,0.6c-2,2.3-1.7,5.7,0.6,7.7
					l14.2,12.2v29c0,3.2,2.6,5.7,5.7,5.7c3.2,0,5.7-2.6,5.7-5.7v-28.8l14.5-12.4C239,318.8,239.3,315.4,237.3,313.1z"/>
			</g>
		</g>
		<g>
			<path class="st0" d="M267,237.2l-2.4-4.1c-0.3-0.4-0.7-0.7-1.2-0.7h-4.8c-0.5,0-1,0.3-1.2,0.7l-2.4,4.1c-0.3,0.4-0.3,1,0,1.4
				l2.4,4.1c0.3,0.4,0.7,0.7,1.2,0.7h4.8c0.5,0,1-0.3,1.2-0.7l2.4-4.1C267.3,238.2,267.3,237.7,267,237.2z"/>
			<path class="st0" d="M211.3,215.6c-0.3-0.6-0.9-0.9-1.5-0.9h-7.8c-0.6,0-1.2,0.3-1.5,0.9l-3.9,6.8c-0.3,0.6-0.3,1.2,0,1.8
				l3.9,6.8c0.3,0.6,0.9,0.9,1.5,0.9h7.8c0.6,0,1.2-0.3,1.5-0.9l3.9-6.8c0.3-0.5,0.3-1.2,0-1.8L211.3,215.6z"/>
			<path class="st0" d="M166.1,236.2c-0.3-0.5-0.8-0.8-1.4-0.8h-4.2c-0.6,0-1.1,0.3-1.4,0.8l-2.1,3.6c-0.3,0.5-0.3,1.2,0,1.7
				l2.1,3.6c0.3,0.5,0.9,0.8,1.4,0.8h4.2c0.6,0,1.1-0.3,1.4-0.8l2.1-3.6c0.3-0.5,0.3-1.2,0-1.7L166.1,236.2z"/>
			<path class="st0" d="M160,292.4c-0.3-0.6-0.9-0.9-1.6-0.9h-5.7c-0.6,0-1.2,0.3-1.6,0.9l-2.9,5c-0.3,0.6-0.3,1.2,0,1.8l2.9,5
				c0.3,0.6,0.9,0.9,1.6,0.9h5.7c0.6,0,1.2-0.3,1.6-0.9l2.9-5c0.3-0.6,0.3-1.2,0-1.8L160,292.4z"/>
			<path class="st0" d="M281.1,285.1l-2.9-5.1c-0.3-0.5-0.8-0.8-1.3-0.8H271c-0.5,0-1,0.3-1.3,0.8l-2.9,5.1c-0.3,0.5-0.3,1,0,1.5
				l2.9,5.1c0.3,0.5,0.8,0.8,1.3,0.8h5.9c0.5,0,1-0.3,1.3-0.8l2.9-5.1C281.4,286.1,281.4,285.5,281.1,285.1z"/>
		</g>
		<path class="st1" d="M272.9,261.7l-6.2-10.7c-0.3-0.5-0.8-0.8-1.4-0.8H253c-0.4,0-0.8,0.2-1.1,0.5l-9.2-10.9l2.3-3.9
			c0.3-0.5,0.3-1.2,0-1.7l-4.1-7.1c-0.3-0.5-0.9-0.9-1.5-0.9h-8.2c-0.6,0-1.2,0.3-1.5,0.9l-4.1,7.1c0,0,0,0.1,0,0.1l-29.3,5.9
			l-2.5-4.3c-0.3-0.5-0.8-0.8-1.4-0.8h-11.9c-0.6,0-1.1,0.3-1.4,0.8l-6,10.3c-0.3,0.5-0.3,1.1,0,1.7l1.7,2.9l-9.4,10.1
			c-0.2-0.1-0.3-0.1-0.5-0.1h-6.5c-0.5,0-0.9,0.3-1.1,0.7l-3.2,5.6c-0.2,0.4-0.2,0.9,0,1.3l3.2,5.6c0.2,0.4,0.7,0.7,1.1,0.7h2.3
			l10.9,27.8c-0.6,0-1.1,0.3-1.4,0.8l-5.1,8.8c-0.3,0.5-0.3,1.1,0,1.7l5.1,8.8c0.3,0.5,0.8,0.8,1.4,0.8h10.2c0.6,0,1.1-0.3,1.4-0.8
			l5.1-8.8c0.3-0.5,0.3-1.1,0-1.7l-2.2-3.8l21.2-29.3c0.3,0.5,0.8,0.8,1.4,0.8h9.2c0.6,0,1.2-0.3,1.5-0.9l1-1.7l23.6,22.4l-1.6,2.8
			c-0.3,0.5-0.3,1.2,0,1.7l4.6,7.9c0.3,0.5,0.9,0.9,1.5,0.9h9.2c0.6,0,1.2-0.3,1.5-0.9l4.6-7.9c0.3-0.5,0.3-1.2,0-1.7l-4.6-7.9
			c-0.3-0.5-0.9-0.9-1.5-0.9h-1.8l6-18.7h3.4c0.6,0,1.1-0.3,1.4-0.8l6.2-10.7C273.2,262.8,273.2,262.2,272.9,261.7z M184.5,305.6
			l-1.4-2.4c-0.3-0.5-0.8-0.8-1.4-0.8h-7.1l-10.9-27.8h1.1c0.5,0,0.9-0.3,1.2-0.7l3.2-5.6c0.2-0.4,0.2-0.9,0-1.3l-2.2-3.8l9.2-9.9
			l2.8,4.9c0.3,0.5,0.8,0.8,1.4,0.8h11.9c0.6,0,1.1-0.3,1.4-0.8l0.7-1.3l9.7,9.5l-1.6,2.8c-0.3,0.5-0.3,1.2,0,1.7l3.1,5.4
			L184.5,305.6z M219.4,261.2c-0.3-0.5-0.9-0.9-1.5-0.9h-9.2c-0.6,0-1.2,0.3-1.5,0.9l-1.5,2.6l-9.7-9.5l3.8-6.5
			c0.3-0.5,0.3-1.1,0-1.7l-2-3.5l28.5-5.7l3.4,5.9c0.3,0.5,0.9,0.9,1.5,0.9h8.2c0.6,0,1.2-0.3,1.5-0.9l0.3-0.5l9.1,10.8l-4.9,8.4
			c-0.1,0.3-0.2,0.5-0.2,0.8l-22.1,5.1L219.4,261.2z M252.9,293.5h-0.6h-3.8c-0.6,0-1.2,0.3-1.5,0.9l-1.5,2.6l-23.6-22.4l2.1-3.7
			c0.1-0.2,0.1-0.4,0.2-0.7l22.3-5.1l5.1,8.9c0.3,0.5,0.8,0.8,1.4,0.8h5.3h0.6L252.9,293.5z"/>
		<g>
			<path class="st2" d="M227.5,249c-0.3-0.4-0.7-0.7-1.2-0.7h-4.1c-0.5,0-1,0.3-1.2,0.7l-2,3.5c-0.3,0.4-0.3,1,0,1.4l2,3.5
				c0.3,0.4,0.7,0.7,1.2,0.7h4.1c0.5,0,1-0.3,1.2-0.7l2-3.5c0.3-0.4,0.3-1,0-1.4L227.5,249z"/>
			<path class="st2" d="M187.2,272.9c-0.3-0.5-0.9-0.9-1.5-0.9h-7.5c-0.6,0-1.2,0.3-1.5,0.9l-3.8,6.5c-0.3,0.5-0.3,1.2,0,1.7
				l3.8,6.5c0.3,0.5,0.9,0.9,1.5,0.9h7.5c0.6,0,1.2-0.3,1.5-0.9l3.8-6.5c0.3-0.5,0.3-1.2,0-1.7L187.2,272.9z"/>
			<path class="st2" d="M247.5,278.2l-1.8-3c-0.3-0.4-0.7-0.7-1.2-0.7H241c-0.5,0-1,0.3-1.2,0.7l-1.8,3c-0.3,0.4-0.3,1,0,1.4l1.8,3
				c0.3,0.4,0.7,0.7,1.2,0.7h3.5c0.5,0,1-0.3,1.2-0.7l1.8-3C247.8,279.2,247.8,278.6,247.5,278.2z"/>
		</g>
	</g>
	<g>
		<path class="st0" d="M401,383.3L401,383.3c-0.9-0.9-2.1-1.4-3.5-1.4c-1.4,0-2.6,0.5-3.5,1.4c-0.9,0.9-1.4,2.1-1.4,3.5v19.4
			c0,2.7-0.7,4.8-2,6.2c-1.3,1.4-3.2,2.1-5.7,2.1c-2.5,0-4.4-0.6-5.7-1.9c-1.3-1.3-1.9-3.4-1.9-6.4v-19.4c0-1.4-0.5-2.6-1.4-3.5
			c-0.9-0.9-2.1-1.4-3.5-1.4c-1.4,0-2.6,0.5-3.5,1.4c-0.9,0.9-1.4,2.1-1.4,3.5v22.1c0,2.8,0.6,5.4,1.7,7.6c1.1,2.2,2.7,4,4.7,5.2
			c2,1.2,4.4,1.9,7,1.9c5.1,0,9-1.4,11.6-4.2c0,3.4-0.8,5.8-2.4,7.2c-1.6,1.4-4.1,2.2-7.5,2.2c-1,0-2-0.1-2.9-0.3
			c-0.9-0.2-1.8-0.5-2.7-0.8c-0.9-0.3-1.5-0.6-1.8-0.8c-0.5-0.2-1-0.2-1.5-0.2c-0.9,0-1.8,0.3-2.6,0.9c-0.8,0.6-1.3,1.5-1.6,2.7
			c-0.2,0.5-0.2,0.9-0.2,1.3c0,2,1.3,3.6,3.9,4.7c1.1,0.5,2.6,0.8,4.4,1.1c1.8,0.3,3.5,0.4,5.2,0.4c5.9,0,10.6-1.5,14.1-4.5
			c3.5-3,5.3-7.8,5.3-14.4v-32C402.3,385.4,401.9,384.2,401,383.3z"/>
		<path class="st0" d="M57.4,411.8c-0.7,0-1.3,0.1-1.8,0.3c-0.5,0.2-1,0.5-1.5,0.9c-0.5,0.4-0.9,0.6-1.2,0.7
			c-1.1,0.6-2.9,0.8-5.2,0.8c-3.2,0-5.8-1.1-7.9-3.4c-2-2.3-3.1-5.2-3.1-8.6c0-3.6,1-6.5,3-8.8c2-2.2,4.9-3.3,8.4-3.3
			c0.6,0,1.3,0.1,2.3,0.3c0.9,0.2,1.6,0.4,2.1,0.6c0.4,0.2,0.9,0.5,1.3,0.9c0.5,0.4,1,0.7,1.5,0.9c0.5,0.2,1.2,0.4,2.1,0.4
			c1.2,0,2.1-0.5,2.8-1.4c0.7-0.9,1-1.9,1-3.1c0-2.3-1.4-4.2-4.1-5.6c-2.6-1.3-6.1-2-10.3-2c-3.8,0-7.3,0.9-10.3,2.7
			c-3,1.8-5.4,4.3-7.1,7.5c-1.7,3.2-2.5,6.8-2.5,10.9c0,3.9,0.8,7.5,2.4,10.7c1.6,3.2,3.9,5.7,6.9,7.5c2.9,1.8,6.4,2.7,10.3,2.7
			c2.6,0,5.1-0.3,7.4-0.9c2.3-0.6,4.2-1.5,5.6-2.5c1.5-1.1,2.2-2.3,2.2-3.6c0-1.3-0.4-2.4-1.2-3.3C59.8,412.2,58.7,411.8,57.4,411.8
			z"/>
		<path class="st0" d="M303.9,381.6c-2.6,0-5.1,0.7-7.3,2c-1.8,1.1-3.4,2.4-4.6,3.8v-0.2c0-1.4-0.5-2.6-1.4-3.5
			c-0.9-0.9-2.1-1.4-3.5-1.4c-1.4,0-2.6,0.5-3.5,1.4c-0.9,0.9-1.4,2.1-1.4,3.5v35.5h9.7v-23.9c0-2.4,0.8-4.4,2.3-6
			c1.5-1.6,3.7-2.4,6.5-2.4c2.6,0,4.5,0.7,5.5,2.2c1.1,1.5,1.6,3.6,1.6,6.2v23.9h9.7v-23.9c0-5.3-1-9.6-3-12.6
			C312.7,383.1,309,381.6,303.9,381.6z"/>
		<path class="st0" d="M165.3,386.2c-1.9-3.1-5.5-4.7-10.5-4.7c-3,0-5.7,0.9-8.1,2.6c-2.1,1.5-3.7,3.2-4.8,5c-1.9-5.1-6-7.6-12-7.6
			c-2.6,0-5,0.7-7.1,2c-1.7,1.1-3.2,2.3-4.5,3.8v-0.1c0-1.4-0.5-2.6-1.4-3.5c-0.9-0.9-2.1-1.4-3.5-1.4c-1.4,0-2.6,0.5-3.5,1.4
			c-0.9,0.9-1.4,2.1-1.4,3.5v35.5h9.7v-23.9c0-2.4,0.8-4.4,2.2-6c1.5-1.6,3.6-2.4,6.2-2.4c2.5,0,4.3,0.7,5.3,2.2
			c1,1.5,1.5,3.6,1.5,6.2v23.9h9.7v-23.9c0-2.4,0.8-4.4,2.2-6c1.5-1.6,3.6-2.4,6.2-2.4c2.5,0,4.3,0.7,5.3,2.2c1,1.5,1.5,3.6,1.5,6.2
			v23.9h9.7v-23.9C168.2,393.5,167.2,389.3,165.3,386.2z"/>
		<path class="st0" d="M328.6,369.7c-1.7,0-3,0.3-3.8,0.9c-0.8,0.6-1.3,1.7-1.3,3.2v1.4c0,1.5,0.4,2.6,1.2,3.2
			c0.8,0.6,2,0.9,3.8,0.9c1.8,0,3.1-0.3,3.9-0.9c0.8-0.6,1.2-1.7,1.2-3.2v-1.4c0-1.5-0.4-2.6-1.2-3.2
			C331.7,370,330.4,369.7,328.6,369.7z"/>
		<path class="st0" d="M231.5,386.2c-1.9-3.1-5.5-4.7-10.5-4.7c-3,0-5.7,0.9-8.1,2.6c-2.1,1.5-3.7,3.2-4.8,5c-1.9-5.1-6-7.6-12-7.6
			c-2.6,0-5,0.7-7.1,2c-1.7,1.1-3.2,2.3-4.5,3.8v-0.1c0-1.4-0.5-2.6-1.4-3.5c-0.9-0.9-2.1-1.4-3.5-1.4c-1.4,0-2.6,0.5-3.5,1.4
			c-0.9,0.9-1.4,2.1-1.4,3.5v35.5h9.7v-23.9c0-2.4,0.8-4.4,2.2-6c1.5-1.6,3.6-2.4,6.2-2.4c2.5,0,4.3,0.7,5.3,2.2
			c1,1.5,1.5,3.6,1.5,6.2l0,23.9h9.7v-23.9c0-2.4,0.8-4.4,2.2-6c1.5-1.6,3.6-2.4,6.2-2.4c2.5,0,4.3,0.7,5.3,2.2
			c1,1.5,1.5,3.6,1.5,6.2v23.9h9.7v-23.9C234.3,393.5,233.4,389.3,231.5,386.2z"/>
		<path class="st0" d="M94.1,384.3c-3.1-1.8-6.6-2.7-10.4-2.7c-3.8,0-7.3,0.9-10.4,2.7c-3.1,1.8-5.6,4.3-7.4,7.5
			c-1.8,3.2-2.7,6.8-2.7,10.8s0.9,7.6,2.7,10.8c1.8,3.2,4.3,5.7,7.4,7.5c3.1,1.8,6.6,2.6,10.4,2.6c3.8,0,7.3-0.9,10.4-2.6
			c3.1-1.8,5.6-4.3,7.5-7.5c1.8-3.2,2.7-6.8,2.7-10.8c0-4-0.9-7.7-2.7-10.8C99.7,388.6,97.2,386,94.1,384.3z M93.1,408.9
			c-1,1.8-2.3,3.2-3.9,4.2c-1.6,1-3.5,1.5-5.5,1.5c-2,0-3.8-0.5-5.5-1.5c-1.6-1-3-2.4-3.9-4.2c-1-1.8-1.5-3.9-1.5-6.3
			c0-2.3,0.5-4.5,1.5-6.3l0,0c1-1.8,2.3-3.3,3.9-4.3c1.6-1,3.5-1.5,5.5-1.5s3.8,0.5,5.5,1.5c1.6,1,3,2.4,3.9,4.3
			c1,1.8,1.5,4,1.5,6.3C94.6,404.9,94.1,407,93.1,408.9z"/>
		<path class="st0" d="M328.6,382.9c-1.4,0-2.6,0.5-3.5,1.4c-0.9,0.9-1.4,2.1-1.4,3.5v34.9h9.7v-34.9c0-1.4-0.5-2.6-1.4-3.5
			C331.1,383.4,330,382.9,328.6,382.9z"/>
		<path class="st0" d="M358,392c1.3,0,2.4-0.4,3.2-1.3c0.9-0.8,1.3-1.9,1.3-3.1c0-1.3-0.4-2.4-1.3-3.2c-0.9-0.9-2-1.3-3.2-1.3h-4.9
			v-8.5c0-1.4-0.5-2.6-1.4-3.5c-0.9-0.9-2.1-1.4-3.4-1.4c-1.4,0-2.6,0.5-3.5,1.4c-0.9,0.9-1.4,2.1-1.4,3.5v8.5h-3
			c-1.3,0-2.4,0.4-3.2,1.3c-0.9,0.8-1.3,1.9-1.3,3.1c0,1.3,0.4,2.4,1.3,3.2c0.9,0.9,2,1.3,3.2,1.3h3v20.1c0,4.4,1.1,7.3,3.3,8.7
			c2.2,1.3,4.8,2,8,2c1.9,0,3.6-0.5,5.1-1.4c1.6-1,2.4-2.2,2.4-3.7c0-1.2-0.3-2.1-0.9-2.9c-0.6-0.8-1.4-1.1-2.2-1.1
			c-0.6,0-1.2,0.1-1.8,0.4c-0.7,0.2-1.2,0.3-1.5,0.3c-0.8,0-1.5-0.2-2-0.6c-0.5-0.4-0.7-1-0.7-2V392H358z"/>
		<path class="st0" d="M274.6,383.7L274.6,383.7c-0.9-0.9-2.1-1.4-3.5-1.4c-1.4,0-2.6,0.5-3.5,1.4c-0.9,0.9-1.4,2.1-1.4,3.5v19.9
			c0,2.4-0.8,4.4-2.3,6c-1.5,1.6-3.7,2.4-6.5,2.4c-2.6,0-4.5-0.7-5.5-2.2c-1.1-1.5-1.6-3.6-1.6-6.2l0-19.9c0-1.4-0.5-2.6-1.4-3.5
			c-0.9-0.9-2.1-1.4-3.5-1.4c-1.4,0-2.6,0.5-3.5,1.4c-0.9,0.9-1.4,2.1-1.4,3.5l0,19.9v1c0,0.2,0,0.4,0,0.5l0,0.3v0l0,0.4
			c0,0.1,0,0.1,0,0.2c0,0.3,0,0.5,0.1,0.8c0,0,0,0.1,0,0.1c0,0,0,0,0,0c0,0,0,0,0,0l0,0c0.3,3.9,1.3,6.1,2.8,8.4
			c2,3.1,5.6,4.7,10.8,4.7c4.1,0,9-2.5,11.9-5.1v4.3h9.7l0-35.5C276,385.8,275.5,384.7,274.6,383.7z"/>
	</g>
	<g>
		<path class="st0" d="M438.1,387.5c-2.6-1.6-5.5-2.4-8.6-2.4c-2.8,0-5.4,0.7-7.7,2.2c-1.7,1.1-3.2,2.4-4.3,3.9v-18.3c0,0,0,0,0-0.1
			c0-0.7-0.3-1.4-0.8-1.8c-0.5-0.5-1.2-0.8-1.9-0.8c-0.8,0-1.4,0.3-1.9,0.8c-0.5,0.5-0.7,1.1-0.8,1.8c0,0,0,0,0,0.1l0,49.6h5.4
			l0-5.2c1.3,1.5,2.8,2.8,4.5,3.9c2.3,1.4,4.9,2.1,7.6,2.1c3.1,0,6-0.8,8.6-2.5c2.5-1.7,4.6-4,6-6.9c1.4-2.9,2.2-6.2,2.2-9.7
			c0-3.6-0.7-6.8-2.2-9.7C442.7,391.4,440.7,389.1,438.1,387.5z M439.6,411.1c-1,2.1-2.5,3.8-4.3,5c-1.8,1.2-3.9,1.8-6.1,1.8
			c-2.3,0-4.4-0.6-6.2-1.8c-1.8-1.2-3.3-2.9-4.3-5c-1-2.1-1.6-4.6-1.6-7.2c0-2.7,0.5-5.1,1.5-7.2c1-2.1,2.4-3.7,4.3-4.9
			c1.8-1.2,3.9-1.7,6.2-1.7c2.3,0,4.3,0.6,6.1,1.8c1.8,1.2,3.3,2.8,4.3,4.9c1,2.1,1.6,4.5,1.6,7.2
			C441.1,406.6,440.6,409,439.6,411.1z"/>
		<path class="st0" d="M471.5,385.7L471.5,385.7c-0.8-0.4-1.8-0.6-2.8-0.6c-3,0-5.7,1-7.9,2.8c-1.5,1.2-2.8,2.7-3.8,4.4v-3.5
			c0-0.8-0.3-1.4-0.8-1.9c-0.5-0.5-1.2-0.8-1.9-0.8c-0.8,0-1.4,0.3-1.9,0.8c-0.5,0.5-0.8,1.2-0.8,1.9l0,33.7h5.4l0-19.8
			c0-2,0.5-4,1.6-6c1-2,2.4-3.6,4-4.9c1.6-1.2,3.1-1.8,4.7-1.8c0.5,0,1.1,0.1,1.7,0.3c1,0.3,1.3,0.4,1.5,0.4c0.7,0,1.3-0.3,1.8-0.8
			c0.5-0.5,0.7-1.2,0.7-2C473,387.2,472.7,386.3,471.5,385.7z"/>
		<path class="st0" d="M504.6,385.9c-0.8,0-1.4,0.3-1.9,0.8c-0.5,0.5-0.8,1.2-0.8,1.9v2.2c-1.1-1.5-2.5-2.7-4.3-3.7
			c-2.4-1.4-5-2.1-7.9-2.1c-3.1,0-6,0.8-8.5,2.4c-2.5,1.6-4.6,3.9-6.1,6.8c-1.5,2.9-2.2,6.1-2.2,9.7c0,3.6,0.7,6.9,2.2,9.7
			c1.4,2.9,3.5,5.2,6,6.9c2.6,1.7,5.5,2.5,8.7,2.5c2.8,0,5.5-0.8,7.9-2.2c1.7-1.1,3.1-2.3,4.3-3.8l0,5.3h5.4l0-33.8
			c0-0.8-0.3-1.4-0.8-1.9C506,386.2,505.4,385.9,504.6,385.9z M500.6,411.2c-1,2.1-2.5,3.8-4.3,5l0,0c-1.8,1.2-3.9,1.8-6.1,1.8
			c-2.3,0-4.4-0.6-6.2-1.8c-1.8-1.2-3.2-2.9-4.2-5c-1-2.1-1.5-4.6-1.5-7.2c0-2.7,0.5-5.1,1.6-7.2c1-2.1,2.5-3.7,4.3-4.9
			c1.8-1.2,3.9-1.8,6.1-1.8c2.3,0,4.3,0.6,6.1,1.8c1.8,1.2,3.3,2.9,4.3,5c1,2.1,1.6,4.5,1.6,7.1
			C502.2,406.6,501.7,409.1,500.6,411.2z"/>
		<path class="st0" d="M532.1,385.1c-2.5,0-5,0.7-7.5,2c-1.8,1-3.3,2.2-4.4,3.6v-1.9c0-0.8-0.3-1.4-0.8-1.9
			c-0.5-0.5-1.2-0.8-1.9-0.8c-0.8,0-1.4,0.3-1.9,0.8c-0.5,0.5-0.8,1.2-0.8,1.9v33.7h5.4v-22.8c0-1.7,0.5-3.2,1.5-4.7
			c1-1.5,2.4-2.6,4.1-3.5c1.7-0.9,3.5-1.3,5.4-1.3c2.9,0,5.1,0.9,6.5,2.6c1.4,1.7,2.1,4.1,2.1,6.9v22.8h5.4v-23
			c0-4.3-1.1-7.8-3.1-10.4C539.9,386.4,536.6,385.1,532.1,385.1z"/>
		<path class="st0" d="M583.8,370.8c-0.5-0.5-1.2-0.8-1.9-0.8c-0.8,0-1.4,0.3-1.9,0.8s-0.8,1.2-0.8,1.9V391
			c-1.1-1.5-2.6-2.7-4.3-3.8c-2.4-1.4-5-2.1-7.8-2.1c-3.1,0-6,0.8-8.5,2.5c-2.5,1.6-4.6,3.9-6.1,6.8c-1.5,2.9-2.2,6.1-2.2,9.7
			c0,3.6,0.7,6.9,2.2,9.7c1.5,2.9,3.5,5.2,6.1,6.8c2.6,1.6,5.4,2.5,8.6,2.5c2.9,0,5.5-0.8,7.9-2.3c1.7-1.1,3.1-2.4,4.2-3.8v5.5h5.4
			v-49.7C584.6,372,584.3,371.3,583.8,370.8L583.8,370.8z M577.9,411.3c-1,2.1-2.5,3.8-4.3,5c-1.8,1.2-3.9,1.8-6.1,1.8
			c-2.3,0-4.3-0.6-6.1-1.8c-1.8-1.2-3.3-2.9-4.3-5c-1-2.1-1.6-4.5-1.6-7.2c0-2.6,0.5-5,1.6-7.1c1-2.1,2.5-3.8,4.3-5
			c1.8-1.2,3.9-1.8,6.1-1.8c2.3,0,4.3,0.6,6.1,1.8c1.8,1.2,3.3,2.9,4.3,5c1,2.1,1.6,4.5,1.6,7.1C579.5,406.7,579,409.1,577.9,411.3z
			"/>
		<path class="st0" d="M611.7,403.7c-1.6-0.8-3.6-1.4-6.1-2c-3-0.8-5.3-1.6-6.8-2.6c-1.4-0.9-2.2-2.1-2.2-3.7c0-1.8,0.7-3.2,2-4.1
			c1.4-0.9,3.2-1.4,5.2-1.4c1.7,0,3.2,0.3,4.7,0.9c1.4,0.6,2.7,1.5,3.7,2.7c0.5,0.5,1,0.7,1.7,0.7c0.7,0,1.2-0.2,1.7-0.6
			c0.6-0.5,0.9-1.2,0.9-1.9c0-0.8-0.3-1.4-0.8-1.8c-1.5-1.7-3.3-3-5.4-3.8c-2.1-0.8-4.1-1.2-6.2-1.2c-2.4,0-4.5,0.4-6.4,1.3
			c-1.9,0.9-3.4,2.1-4.6,3.7c-1.1,1.6-1.7,3.4-1.7,5.4c0,3.2,1.2,5.6,3.5,7.3c2.2,1.6,5.3,2.9,9.2,3.9c2.6,0.7,4.7,1.5,6.2,2.4
			c1.3,0.9,2,2.1,2,3.8c0,1.8-0.7,3.1-2.2,4c-1.5,1-3.4,1.5-5.4,1.5c-4.4,0-7.7-1.7-10.4-5.1c0,0,0,0-0.1-0.1
			c-0.6-0.6-1.2-0.9-2-0.9c-0.6,0-1.1,0.2-1.5,0.5c-0.9,0.5-1.1,1.3-1.1,1.9c0,0.5,0.2,1.1,0.7,1.9c3.4,4.3,8.1,6.5,13.9,6.5
			c3.7,0,6.8-0.9,9.3-2.8c2.5-1.9,3.8-4.5,3.8-7.6c0-2.3-0.5-4.2-1.6-5.7C614.7,405.6,613.4,404.5,611.7,403.7z"/>
		<path class="st0" d="M624.6,390.3c0-0.1-0.1-0.2-0.1-0.4c0-0.2-0.1-0.4-0.2-0.6c-0.1-0.2-0.2-0.3-0.4-0.4c0.6-0.2,0.9-0.5,0.9-1.1
			c0-0.8-0.5-1.2-1.5-1.2h-1.3c-0.1,0-0.2,0-0.2,0.1c-0.1,0.1-0.1,0.1-0.1,0.2v3.7c0,0.1,0,0.2,0.1,0.2c0.1,0.1,0.2,0.1,0.3,0.1
			s0.2,0,0.3-0.1c0.1-0.1,0.1-0.2,0.1-0.2v-1.4h0.7c0.2,0,0.4,0.1,0.5,0.2c0.1,0.1,0.2,0.3,0.2,0.5c0,0.3,0.1,0.6,0.2,0.7
			c0.1,0.2,0.2,0.3,0.4,0.3c0.1,0,0.3,0,0.4,0s0.2-0.1,0.2-0.2c0-0.1,0-0.1,0-0.2c0-0.1-0.1-0.1-0.1-0.1
			C624.7,390.5,624.6,390.4,624.6,390.3z M623.9,388.4c-0.2,0.1-0.4,0.2-0.6,0.2h-0.8v-1.2h0.8c0.3,0,0.5,0,0.6,0.1
			c0.1,0.1,0.2,0.2,0.2,0.5C624.1,388.2,624.1,388.3,623.9,388.4z"/>
		<path class="st0" d="M626.5,387c-0.3-0.6-0.8-1.1-1.4-1.4c-0.6-0.3-1.3-0.5-2-0.5s-1.4,0.2-2,0.5c-0.6,0.3-1.1,0.8-1.4,1.4
			c-0.4,0.6-0.5,1.3-0.5,2c0,0.7,0.2,1.4,0.5,2c0.3,0.6,0.8,1.1,1.4,1.4c0.6,0.3,1.3,0.5,2,0.5s1.4-0.2,2-0.5
			c0.6-0.3,1.1-0.8,1.4-1.4c0.4-0.6,0.5-1.3,0.5-2C627,388.2,626.8,387.6,626.5,387z M625.8,390.6c-0.3,0.5-0.6,0.9-1.1,1.1
			c-0.5,0.3-1,0.4-1.6,0.4c-0.6,0-1.1-0.1-1.6-0.4c-0.5-0.3-0.9-0.6-1.1-1.1c-0.3-0.5-0.4-1-0.4-1.6c0-0.6,0.1-1.2,0.4-1.6
			c0.3-0.5,0.7-0.9,1.1-1.1c0.5-0.3,1-0.4,1.6-0.4c0.6,0,1.1,0.1,1.6,0.4c0.5,0.3,0.8,0.6,1.1,1.1c0.3,0.5,0.4,1,0.4,1.6
			C626.2,389.6,626.1,390.1,625.8,390.6z"/>
	</g>
</g>
</svg>
