<?xml version="1.0" encoding="UTF-8"?>
<svg xmlns="http://www.w3.org/2000/svg" width="300" height="140" viewBox="0 0 300 140" fill="none">
  <path d="M246.041 58.4933C246.37 58.4933 246.692 58.5778 247.005 58.7466C247.319 58.9155 247.563 59.1571 247.738 59.4714C247.913 59.7857 248 60.1135 248 60.4546C248 60.7924 247.914 61.1171 247.742 61.4288C247.569 61.7405 247.328 61.9826 247.017 62.1549C246.706 62.3272 246.381 62.4133 246.041 62.4133C245.702 62.4133 245.377 62.3272 245.066 62.1549C244.755 61.9826 244.513 61.7405 244.34 61.4288C244.167 61.1171 244.08 60.7924 244.08 60.4546C244.08 60.1135 244.168 59.7857 244.344 59.4714C244.519 59.1571 244.764 58.9155 245.078 58.7466C245.391 58.5778 245.712 58.4933 246.041 58.4933ZM246.041 58.818C245.766 58.818 245.498 58.8886 245.237 59.0297C244.977 59.1709 244.773 59.3727 244.626 59.635C244.478 59.8974 244.405 60.1706 244.405 60.4546C244.405 60.7369 244.477 61.0075 244.622 61.2664C244.766 61.5253 244.968 61.7271 245.228 61.8717C245.488 62.0163 245.759 62.0886 246.041 62.0886C246.324 62.0886 246.595 62.0163 246.854 61.8717C247.114 61.7271 247.316 61.5253 247.46 61.2664C247.603 61.0075 247.675 60.7369 247.675 60.4546C247.675 60.1706 247.602 59.8974 247.456 59.635C247.309 59.3727 247.106 59.1709 246.844 59.0297C246.583 58.8886 246.315 58.818 246.041 58.818ZM245.181 61.5379V59.4285H245.906C246.154 59.4285 246.333 59.448 246.444 59.487C246.555 59.5259 246.643 59.5939 246.709 59.6909C246.775 59.7879 246.808 59.8909 246.808 60C246.808 60.1542 246.753 60.2884 246.643 60.4027C246.533 60.517 246.387 60.5811 246.205 60.5949C246.279 60.6261 246.339 60.6633 246.384 60.7066C246.469 60.7897 246.573 60.9292 246.696 61.1249L246.953 61.5379H246.537L246.35 61.2054C246.203 60.9439 246.085 60.7802 245.995 60.7144C245.932 60.6659 245.841 60.6417 245.722 60.6417H245.522V61.5379H245.181ZM245.522 60.3507H245.935C246.132 60.3507 246.267 60.3213 246.339 60.2624C246.411 60.2035 246.447 60.1256 246.447 60.0286C246.447 59.9663 246.429 59.9104 246.395 59.8611C246.36 59.8117 246.312 59.7749 246.25 59.7506C246.189 59.7264 246.075 59.7142 245.909 59.7142H245.522V60.3507Z" fill="#7E878E"></path>
  <path d="M118.123 80.1323C121.734 70.8405 125.477 61.2289 129.277 51.4857H135.897C136.086 52.2193 136.387 52.9528 136.443 53.6864C136.725 57.9749 136.932 62.2823 137.214 66.5708C137.515 70.9158 137.891 75.2607 138.192 79.6245C138.38 82.3706 138.474 85.1168 138.625 88.0699H133.678C133.49 87.3927 133.189 86.7344 133.151 86.0761C132.982 83.1982 132.907 80.3016 132.738 77.405C132.418 71.875 132.06 66.3451 131.759 60.8151C131.703 59.8182 131.759 58.8025 131.759 57.4671C127.734 67.7934 123.841 77.8 119.928 87.8442H115.715C111.934 77.7812 107.853 67.7934 104.862 57.4483C104.223 67.5301 103.583 77.6683 102.944 88.0134H97.7333C98.6738 75.7874 99.5955 63.693 100.517 51.4481H107.458C111.069 61.1349 114.643 70.8029 118.123 80.1323Z" fill="#7E878E"></path>
  <path d="M171.993 64.7839V88.0134H168.231V58.8966H172.914C177.861 66.4015 182.94 74.0945 187.868 81.5618V58.859H191.78C191.818 68.5458 191.78 78.195 191.78 88.0511H187.285C182.225 80.358 176.996 72.4205 171.993 64.8027V64.7839Z" fill="#7E878E"></path>
  <path d="M145.396 58.8214H162.325V62.0002H149.816V71.0286H161.572V74.4143H149.854V84.5902H163.021V88.0887H145.396V58.8214Z" fill="#7E878E"></path>
  <path d="M214.821 59.9687C214.464 60.9092 214.126 61.8308 213.768 62.8465C212.395 62.4891 211.172 61.9813 209.912 61.8872C208.351 61.7744 206.696 61.7932 205.172 62.1318C203.611 62.4703 202.426 63.5237 202.182 65.2729C201.918 67.0786 202.464 68.621 204.119 69.4862C206.056 70.4831 208.163 71.1979 210.082 72.2324C211.624 73.06 213.317 73.944 214.389 75.2419C217.455 78.9097 216.42 84.1387 212.414 86.8096C208.596 89.3489 201.279 89.2548 197.084 86.5463C197.404 85.587 197.743 84.5713 198.044 83.612C200.188 84.1575 202.125 84.6465 204.044 85.1356C205.943 85.6246 207.73 85.098 209.386 84.2704C212.056 82.9161 212.621 79.2106 210.326 77.2357C209.066 76.1447 207.373 75.5428 205.868 74.7528C204.194 73.8876 202.37 73.2481 200.809 72.1948C196.52 69.2605 196.67 63.4296 200.809 60.3261C204.213 57.7492 211.944 57.8432 214.803 60.0063L214.821 59.9687Z" fill="#7E878E"></path>
  <path d="M234.703 58.7837H229.681C226.126 68.5081 222.609 78.1197 218.978 88.051H223.399C224.489 85.0792 225.562 82.1449 226.653 79.2106H237.524C238.653 82.2201 239.744 85.1356 240.816 87.9946H245.387C241.738 78.0445 238.22 68.3953 234.703 58.7837ZM227.743 75.5993C229.229 71.3295 230.584 67.3984 232.051 63.1663C233.556 67.4172 234.985 71.4236 236.471 75.5993H227.743Z" fill="#7E878E"></path>
  <g clip-path="url(#clip0_1_4)">
    <path d="M74.8984 50.9384H66.2261C58.695 50.9384 52.5897 57.0436 52.5897 64.5748V73.9648C52.5897 81.4959 58.695 87.6012 66.2261 87.6012H74.8984C82.4296 87.6012 88.5348 81.4959 88.5348 73.9648V64.5748C88.5348 57.0436 82.4296 50.9384 74.8984 50.9384Z" fill="white" stroke="#7E878E" stroke-width="0.502394" stroke-linejoin="round"></path>
    <path d="M74.5396 52.4897H66.585C59.7475 52.4897 54.2046 57.8719 54.2046 64.5112V73.9947C54.2046 80.634 59.7475 86.0162 66.585 86.0162H74.5396C81.3771 86.0162 86.92 80.634 86.92 73.9947V64.5112C86.92 57.8719 81.3771 52.4897 74.5396 52.4897Z" fill="#7E878E"></path>
    <path fill-rule="evenodd" clip-rule="evenodd" d="M58.2049 62.4815V76.5963L60.8498 78.1983L63.4947 76.5963V70.8547L68.0423 73.4802V82.2782L70.5748 83.779L73.1074 82.3555L73.1074 73.4802L77.8019 70.8547V76.5963L80.3608 78.1983L82.9196 76.5963L82.9196 62.4815L70.5748 69.0653L58.2049 62.4815Z" fill="white"></path>
    <path d="M75.7058 60.5826C75.7058 63.3985 73.403 65.6812 70.5623 65.6812C67.7215 65.6812 65.4187 63.3985 65.4187 60.5826C65.4187 57.7666 67.7215 55.4839 70.5623 55.4839C73.403 55.4839 75.7058 57.7666 75.7058 60.5826Z" stroke="white" stroke-width="1.33972" stroke-linejoin="round"></path>
    <path d="M70.6008 55.4839V65.6812" stroke="white" stroke-width="0.334929"></path>
    <path d="M70.7682 55.7238C70.1065 55.9568 69.5354 56.4385 69.0936 57.0687C68.4602 57.9722 68.0757 59.2016 68.0757 60.5593C68.0757 61.917 68.4602 63.1491 69.0936 64.0525C69.5354 64.6828 70.1065 65.1645 70.7682 65.3975V65.0704C70.2789 64.8522 69.8263 64.4634 69.452 63.9295C68.854 63.0766 68.476 61.8799 68.476 60.5593C68.476 59.2387 68.854 58.0447 69.452 57.1917C69.8263 56.6578 70.2789 56.2664 70.7682 56.0482V55.7238Z" fill="white"></path>
    <path d="M70.4333 55.7238C71.095 55.9568 71.6661 56.4385 72.108 57.0687C72.7413 57.9722 73.1258 59.2016 73.1258 60.5593C73.1258 61.917 72.7413 63.1491 72.108 64.0525C71.6661 64.6828 71.095 65.1645 70.4333 65.3975V65.0704C70.9226 64.8522 71.3752 64.4634 71.7495 63.9295C72.3475 63.0766 72.7255 61.8799 72.7255 60.5593C72.7255 59.2387 72.3475 58.0447 71.7495 57.1917C71.3752 56.6578 70.9226 56.2664 70.4333 56.0482V55.7238Z" fill="white"></path>
    <path d="M75.661 60.5825H65.4636" stroke="white" stroke-width="0.334929"></path>
  </g>
  <defs>
    <clipPath id="clip0_1_4">
      <rect width="37.24" height="37.24" fill="white" transform="translate(52 50.6533)"></rect>
    </clipPath>
  </defs>
</svg>
